<svg width="24" height="24" viewBox="0 0 24 24" fill="none" xmlns="http://www.w3.org/2000/svg">
<path d="M19.6 2.48898C17.26 0.148981 12.98 0.618981 10.05 3.54898C8.45004 5.14898 7.53004 7.41898 7.51004 9.00898C7.49004 10.589 7.77004 12.899 6.16004 14.509L1.92004 18.749L3.34004 20.169L7.58004 15.929C9.19004 14.319 11.5 14.599 13.08 14.579C14.66 14.559 16.94 13.639 18.54 12.039C21.46 9.10898 21.94 4.82898 19.6 2.48898ZM10.4 11.679C8.87004 10.149 9.35004 7.06898 11.46 4.95898C13.57 2.84898 16.64 2.36898 18.18 3.89898C19.71 5.42898 19.23 8.50898 17.12 10.619C15.01 12.729 11.94 13.209 10.4 11.679Z" fill="#212121"/>
<path d="M18.08 16.999C18.61 16.999 19.12 17.209 19.49 17.589C20.27 18.369 20.27 19.639 19.49 20.419C19.12 20.789 18.61 20.999 18.08 20.999C17.55 20.999 17.04 20.789 16.67 20.409C15.89 19.629 15.89 18.359 16.67 17.579C17.04 17.209 17.55 16.999 18.08 16.999ZM18.08 14.999C17.06 14.999 16.03 15.389 15.25 16.169C13.69 17.729 13.69 20.259 15.25 21.829C16.03 22.609 17.06 22.999 18.08 22.999C19.1 22.999 20.13 22.609 20.91 21.829C22.47 20.269 22.47 17.739 20.91 16.169C20.13 15.389 19.1 14.999 18.08 14.999Z" fill="#212121"/>
</svg>
