<svg width="25" height="24" viewBox="0 0 25 24" fill="none" xmlns="http://www.w3.org/2000/svg">
<path d="M12.25 2C6.73 2 2.25 6.48 2.25 12C2.25 17.52 6.73 22 12.25 22C17.77 22 22.25 17.52 22.25 12C22.25 6.48 17.77 2 12.25 2ZM12.25 5C13.91 5 15.25 6.34 15.25 8C15.25 9.66 13.91 11 12.25 11C10.59 11 9.25 9.66 9.25 8C9.25 6.34 10.59 5 12.25 5ZM12.25 19.2C9.75 19.2 7.54 17.92 6.25 15.98C6.28 13.99 10.25 12.9 12.25 12.9C14.24 12.9 18.22 13.99 18.25 15.98C16.96 17.92 14.75 19.2 12.25 19.2Z" fill="#BDBDBD"/>
</svg>
