<svg width="16" height="20" viewBox="0 0 16 20" fill="none" xmlns="http://www.w3.org/2000/svg">
<path d="M7.98924 4C9.09381 4 9.98924 3.10457 9.98924 2C9.98924 0.89543 9.09381 0 7.98924 0C6.88467 0 5.98924 0.89543 5.98924 2C5.98924 3.10457 6.88467 4 7.98924 4Z" fill="#757575"/>
<path d="M11.8792 6.11C11.4892 5.72 10.8192 5 9.51924 5C9.30924 5 8.09924 5 6.97924 5C4.51924 4.99 2.46924 3.2 2.05924 0.85C1.97924 0.36 1.56924 0 1.07924 0C0.469244 0 -0.0107557 0.54 0.0792443 1.14C0.519244 3.8 2.45924 5.95 4.98924 6.71V19C4.98924 19.55 5.43924 20 5.98924 20C6.53924 20 6.98924 19.55 6.98924 19V14H8.98924V19C8.98924 19.55 9.43924 20 9.98924 20C10.5392 20 10.9892 19.55 10.9892 19V8.05L14.2292 11.29C14.6192 11.68 15.2492 11.68 15.6392 11.29C16.0292 10.9 16.0292 10.27 15.6392 9.88L11.8792 6.11Z" fill="#757575"/>
</svg>
