<svg width="24" height="24" viewBox="0 0 24 24" fill="none" xmlns="http://www.w3.org/2000/svg">
<path d="M23 10.6501V10.0401C23 9.2401 22.52 8.5001 21.77 8.2001C18.12 6.7201 14.96 4.2701 13.29 2.8301C12.55 2.1901 11.45 2.1901 10.71 2.8301C9.03 4.2701 5.88 6.7101 2.23 8.2001C1.48 8.5001 1 9.2301 1 10.0401V10.6501C1 12.1401 1.93 13.4001 3.24 13.9101C3.21 15.5901 3.08 17.4601 2.72 19.2001C2.46 20.4601 3.38 21.6501 4.67 21.6501H19.34C20.63 21.6501 21.55 20.4601 21.29 19.2001C20.93 17.4501 20.79 15.5801 20.77 13.9101C22.07 13.4001 23 12.1401 23 10.6501ZM12 4.3601C13.33 5.5001 15.49 7.2001 18.11 8.6501H5.89C8.51 7.2001 10.67 5.5001 12 4.3601ZM13 10.6501H16C16 11.4801 15.33 12.1501 14.5 12.1501C13.67 12.1501 13 11.4801 13 10.6501ZM9.5 12.1501C8.67 12.1501 8 11.4801 8 10.6501H11C11 11.4801 10.33 12.1501 9.5 12.1501ZM6 10.6501C6 11.4801 5.33 12.1501 4.5 12.1501C3.67 12.1501 3 11.4801 3 10.6501H6ZM4.66 19.6501C5.05 17.7901 5.2 15.8301 5.23 14.0701C5.91 13.9201 6.52 13.5801 6.99 13.0901C7.24 13.3401 7.53 13.5401 7.84 13.7101C7.74 15.5801 7.58 17.7101 7.32 19.6401H4.66V19.6501ZM9.35 19.6501C9.59 17.8201 9.74 15.8701 9.83 14.1201C10.67 14.0401 11.44 13.6701 12 13.1001C12.56 13.6701 13.32 14.0401 14.17 14.1201C14.27 15.8701 14.41 17.8201 14.65 19.6501H9.35ZM16.67 19.6501C16.4 17.7101 16.24 15.5801 16.15 13.7201C16.46 13.5501 16.76 13.3501 17 13.1001C17.47 13.5801 18.08 13.9301 18.76 14.0801C18.79 15.8401 18.94 17.8001 19.33 19.6601H16.67V19.6501ZM19.5 12.1501C18.67 12.1501 18 11.4801 18 10.6501H21C21 11.4801 20.33 12.1501 19.5 12.1501Z" fill="white"/>
</svg>
