<svg width="273" height="165" viewBox="0 0 273 165" fill="none" xmlns="http://www.w3.org/2000/svg">
<path d="M185.832 33.9261C184.467 33.9261 183.194 34.4139 182.193 35.2368C180.435 31.0609 176.341 28.1348 171.581 28.1348C165.214 28.1348 160.06 33.3165 160.06 39.7175H180.071H183.103H191.593C191.593 36.517 189.015 33.9261 185.832 33.9261Z" fill="white"/>
<path d="M127.041 104.186H77.498V163.258H127.041V104.186Z" fill="#EA633A"/>
<path d="M124.797 134.025H119.34V136.555H124.797V134.025Z" fill="#D85335"/>
<path d="M82.9557 125.733H77.498V128.263H82.9557V125.733Z" fill="#D85335"/>
<path d="M102.118 151.123H96.6602V153.653H102.118V151.123Z" fill="#D85335"/>
<path d="M112.548 160.573H107.091V163.103H112.548V160.573Z" fill="#D85335"/>
<path d="M121.765 130.885H116.308V133.415H121.765V130.885Z" fill="#D85335"/>
<path d="M127.041 104.186H77.498V118.207H127.041V104.186Z" fill="#CE4829" stroke="#CE4829" stroke-width="1.81921" stroke-miterlimit="10" stroke-linecap="round" stroke-linejoin="round"/>
<path d="M127.041 104.186H77.498V163.258H127.041V104.186Z" stroke="#1C1A34" stroke-width="1.81921" stroke-miterlimit="10" stroke-linecap="round" stroke-linejoin="round"/>
<path d="M137.441 115.096H66.4316L84.7147 66.3262H155.755L137.441 115.096Z" fill="#EC1E39"/>
<path d="M78.2867 109.213H72.8291V111.743H78.2867V109.213Z" fill="#F22F50"/>
<path d="M81.4098 106.072H75.9521V108.602H81.4098V106.072Z" fill="#DD1738"/>
<path d="M75.2545 106.072H69.7969V108.602H75.2545V106.072Z" fill="#F22F50"/>
<path d="M89.9596 76.2324H84.502V78.7623H89.9596V76.2324Z" fill="#F22F50"/>
<path d="M86.9274 73.0645H81.4697V75.5944H86.9274V73.0645Z" fill="#F22F50"/>
<path opacity="0.82" d="M127.617 115.097L122.493 95.0706L118.642 98.2101C116.975 99.5513 114.549 99.2465 113.276 97.5395C112.063 95.8936 112.396 93.577 114.003 92.3273L139.594 72.6671C140.958 71.6307 142.838 71.6307 144.172 72.6975L152.328 79.1595L127.617 115.097Z" fill="#C91B38"/>
<path d="M137.441 115.096H66.4316L84.7147 66.3262H155.755L137.441 115.096Z" stroke="#1C1A34" stroke-width="1.81921" stroke-miterlimit="10" stroke-linecap="round" stroke-linejoin="round"/>
<path d="M120.614 55.2627H108.971V66.3273H120.614V55.2627Z" fill="#1C1931"/>
<path d="M120.25 62.3027H115.763V64.8327H120.25V62.3027Z" fill="#272544"/>
<path d="M112.547 59.7725H108.363V62.3024H112.547V59.7725Z" fill="#272544"/>
<path d="M120.614 55.2627H108.971V66.3273H120.614V55.2627Z" stroke="#1C1A34" stroke-width="1.81921" stroke-miterlimit="10" stroke-linecap="round" stroke-linejoin="round"/>
<path d="M123.554 50.8428H106.06V55.2625H123.554V50.8428Z" fill="#282642"/>
<path d="M123.554 50.8428H106.06V55.2625H123.554V50.8428Z" stroke="#1C1A34" stroke-width="1.81921" stroke-miterlimit="10" stroke-linecap="round" stroke-linejoin="round"/>
<path d="M115.61 121.831H88.9287V143.777H115.61V121.831Z" fill="#71B8BC"/>
<path opacity="0.62" d="M88.9287 134.298V142.345L104.422 121.831H98.328L88.9287 134.298Z" fill="#D0F6FB"/>
<path opacity="0.62" d="M89.9297 143.777H92.9617L109.547 121.831H106.515L89.9297 143.777Z" fill="#D0F6FB"/>
<path d="M115.61 121.831H88.9287V143.777H115.61V121.831Z" stroke="#1C1A34" stroke-width="1.81921" stroke-miterlimit="10" stroke-linecap="round" stroke-linejoin="round"/>
<path d="M117.127 144.999H87.4131V148.657H117.127V144.999Z" fill="#D14D2F" stroke="#CE4829" stroke-width="1.81921" stroke-miterlimit="10" stroke-linecap="round" stroke-linejoin="round"/>
<path d="M117.127 143.777H87.4131V147.435H117.127V143.777Z" fill="#656B82"/>
<path d="M117.127 143.777H87.4131V147.435H117.127V143.777Z" stroke="#1C1A34" stroke-width="1.81921" stroke-miterlimit="10" stroke-linecap="round" stroke-linejoin="round"/>
<path d="M241.742 110.401C246.412 118.235 249.807 143.869 235.163 143.869C220.549 143.869 223.944 118.235 228.583 110.401C230.524 107.17 233.071 105.677 235.163 105.677C237.255 105.677 239.802 107.17 241.742 110.401Z" fill="#1FBE6A"/>
<path d="M241.742 110.401C246.412 118.235 249.807 143.869 235.163 143.869C220.549 143.869 223.944 118.235 228.583 110.401C230.524 107.17 233.071 105.677 235.163 105.677C237.255 105.677 239.802 107.17 241.742 110.401Z" stroke="#1C1A34" stroke-width="1.81921" stroke-miterlimit="10" stroke-linecap="round" stroke-linejoin="round"/>
<path d="M227.764 101.562C232.434 110.706 235.83 140.639 221.185 140.639C206.54 140.639 209.966 110.706 214.605 101.562C216.546 97.7823 219.093 96.0449 221.185 96.0449C223.277 96.0449 225.824 97.7823 227.764 101.562Z" fill="#2CDF78"/>
<path d="M227.764 101.562C232.434 110.706 235.83 140.639 221.185 140.639C206.54 140.639 209.966 110.706 214.605 101.562C216.546 97.7823 219.093 96.0449 221.185 96.0449C223.277 96.0449 225.824 97.7823 227.764 101.562Z" stroke="#1C1A34" stroke-width="1.81921" stroke-miterlimit="10" stroke-linecap="round" stroke-linejoin="round"/>
<path d="M55.122 139.725C48.8154 139.725 44.0248 133.202 43.9945 126.1C43.8126 108.208 48.3606 89.1879 55.8497 69.741C56.1832 68.8571 57.2747 68.8876 57.5779 69.802C64.0968 89.6146 67.1288 108.482 66.2798 126.527C66.0069 133.507 61.277 139.725 55.122 139.725Z" fill="#2BCCA0"/>
<path d="M55.122 139.725C48.8154 139.725 44.0248 133.202 43.9945 126.1C43.8126 108.208 48.3606 89.1879 55.8497 69.741C56.1832 68.8571 57.2747 68.8876 57.5779 69.802C64.0968 89.6146 67.1288 108.482 66.2798 126.527C66.0069 133.507 61.277 139.725 55.122 139.725Z" stroke="#1C1A34" stroke-width="1.81921" stroke-miterlimit="10" stroke-linecap="round" stroke-linejoin="round"/>
<path d="M41.7507 87.7543C46.42 98.3007 49.8159 132.805 35.1712 132.805C20.5266 132.805 23.9528 98.3007 28.5918 87.7543C30.5323 83.3955 33.0791 81.3838 35.1712 81.3838C37.2633 81.3838 39.8405 83.3955 41.7507 87.7543Z" fill="#21AA7F"/>
<path d="M41.7507 87.7543C46.42 98.3007 49.8159 132.805 35.1712 132.805C20.5266 132.805 23.9528 98.3007 28.5918 87.7543C30.5323 83.3955 33.0791 81.3838 35.1712 81.3838C37.2633 81.3838 39.8405 83.3955 41.7507 87.7543Z" stroke="#1C1A34" stroke-width="1.81921" stroke-miterlimit="10" stroke-linecap="round" stroke-linejoin="round"/>
<path d="M27.7732 101.562C32.4425 110.706 35.8383 140.639 21.1937 140.639C6.54909 140.639 9.97523 110.706 14.6142 101.562C16.5547 97.7823 19.1016 96.0449 21.1937 96.0449C23.2858 96.0449 25.863 97.7823 27.7732 101.562Z" fill="#2BCCA0"/>
<path d="M27.7732 101.562C32.4425 110.706 35.8383 140.639 21.1937 140.639C6.54909 140.639 9.97523 110.706 14.6142 101.562C16.5547 97.7823 19.1016 96.0449 21.1937 96.0449C23.2858 96.0449 25.863 97.7823 27.7732 101.562Z" stroke="#1C1A34" stroke-width="1.81921" stroke-miterlimit="10" stroke-linecap="round" stroke-linejoin="round"/>
<path d="M199.87 163.287H127.041V84.981L163.456 53.4941L199.87 84.981V163.287Z" fill="#FF9839"/>
<path d="M199.962 103.545H194.504V106.075H199.962V103.545Z" fill="#ED852F"/>
<path d="M196.929 106.683H191.472V109.213H196.929V106.683Z" fill="#ED852F"/>
<path d="M193.897 103.545H188.439V106.075H193.897V103.545Z" fill="#ED852F"/>
<path d="M171.49 76.9336H166.032V79.4635H171.49V76.9336Z" fill="#ED852F"/>
<path d="M135.531 106.683H130.073V109.213H135.531V106.683Z" fill="#ED852F"/>
<path d="M193.079 149.66H187.621V152.19H193.079V149.66Z" fill="#ED852F"/>
<path d="M150.266 88.6084H144.809V91.1383H150.266V88.6084Z" fill="#ED852F"/>
<path d="M132.499 103.545H127.041V106.075H132.499V103.545Z" fill="#ED852F"/>
<path d="M129.77 67.4844H124.312V70.0143H129.77V67.4844Z" fill="#DD1738"/>
<path d="M118.339 105.099H112.882V107.629H118.339V105.099Z" fill="#DD1738"/>
<path d="M165.821 130.276H160.363V132.806H165.821V130.276Z" fill="#ED852F"/>
<path d="M162.789 127.136H157.331V129.666H162.789V127.136Z" fill="#ED852F"/>
<path d="M127.041 84.981V89.736L163.365 58.7978L199.87 89.858V84.981L163.456 53.4941L127.041 84.981Z" fill="#EA633A"/>
<path d="M199.87 163.287H127.041V84.981L163.456 53.4941L199.87 84.981V163.287Z" stroke="#1C1A34" stroke-width="1.81921" stroke-miterlimit="10" stroke-linecap="round" stroke-linejoin="round"/>
<path d="M187.622 121.831H165.791V163.285H187.622V121.831Z" fill="#99393E"/>
<path d="M187.621 121.831H185.135V163.285H187.621V121.831Z" fill="#822E36"/>
<path d="M187.622 121.831H165.791V163.285H187.622V121.831Z" stroke="#1C1A34" stroke-width="1.81921" stroke-miterlimit="10" stroke-linecap="round" stroke-linejoin="round"/>
<path d="M157.331 121.831H138.532V143.777H157.331V121.831Z" fill="#89C6CC"/>
<path opacity="0.92" d="M138.532 140.089L152.328 121.831H146.234L138.532 132.042V140.089Z" fill="#D0F6FB"/>
<path opacity="0.92" d="M157.331 122.014V121.831H154.42L138.532 142.863V143.777H140.867L157.331 122.014Z" fill="#D0F6FB"/>
<path d="M159.453 144.999H136.41V148.657H159.453V144.999Z" fill="#EA633A" stroke="#EA633A" stroke-width="1.81921" stroke-miterlimit="10" stroke-linecap="round" stroke-linejoin="round"/>
<path d="M157.331 121.831H138.532V143.777H157.331V121.831Z" stroke="#1C1A34" stroke-width="1.81921" stroke-miterlimit="10" stroke-linecap="round" stroke-linejoin="round"/>
<path d="M159.453 143.777H136.41V147.435H159.453V143.777Z" fill="#656B82"/>
<path d="M159.453 143.777H136.41V147.435H159.453V143.777Z" stroke="#1C1A34" stroke-width="1.81921" stroke-miterlimit="10" stroke-linecap="round" stroke-linejoin="round"/>
<path d="M163.456 96.8382C168.312 96.8382 172.249 92.8805 172.249 87.9987C172.249 83.1168 168.312 79.1592 163.456 79.1592C158.6 79.1592 154.663 83.1168 154.663 87.9987C154.663 92.8805 158.6 96.8382 163.456 96.8382Z" fill="#98AAB5"/>
<path d="M163.456 79.1592C162.607 79.1592 161.788 79.2811 161.03 79.4945C164.699 80.5613 167.398 83.9447 167.398 87.9987C167.398 92.0222 164.699 95.436 161.03 96.5029C161.788 96.7162 162.607 96.8382 163.456 96.8382C168.307 96.8382 172.249 92.8756 172.249 87.9987C172.249 83.0912 168.307 79.1592 163.456 79.1592Z" fill="#7B929E"/>
<path d="M163.456 96.8382C168.312 96.8382 172.249 92.8805 172.249 87.9987C172.249 83.1168 168.312 79.1592 163.456 79.1592C158.6 79.1592 154.663 83.1168 154.663 87.9987C154.663 92.8805 158.6 96.8382 163.456 96.8382Z" stroke="#1C1A34" stroke-width="1.81921" stroke-miterlimit="10" stroke-linecap="round" stroke-linejoin="round"/>
<path d="M191.26 163.288H162.152V160.849C162.152 158.502 164.063 156.582 166.397 156.582H187.015C189.35 156.582 191.26 158.502 191.26 160.849V163.288Z" fill="#6E818E"/>
<path d="M191.26 160.422H162.152V163.257H191.26V160.422Z" fill="#5C6F7A"/>
<path d="M191.26 163.288H162.152V160.849C162.152 158.502 164.063 156.582 166.397 156.582H187.015C189.35 156.582 191.26 158.502 191.26 160.849V163.288Z" stroke="#1C1A34" stroke-width="1.81921" stroke-miterlimit="10" stroke-linecap="round" stroke-linejoin="round"/>
<path d="M10.6426 163.287H249.383" stroke="#1C1A34" stroke-width="2.42561" stroke-miterlimit="10" stroke-linecap="round" stroke-linejoin="round"/>
<path d="M210.088 90.6794C209.058 91.9291 207.178 92.112 205.935 91.0452L163.365 54.8033L120.796 91.0452C119.552 92.112 117.703 91.9291 116.642 90.6794C115.611 89.4297 115.762 87.6008 117.006 86.5645L158.847 50.9932L163.395 47.1221L167.913 50.9932L209.755 86.5645C210.968 87.5703 211.119 89.4297 210.088 90.6794Z" fill="#FF4B53"/>
<path d="M134.773 77.8779H130.407V80.4078H134.773V77.8779Z" fill="#EA3F54"/>
<path d="M166.912 51.1484H162.88V53.6784H166.912V51.1484Z" fill="#EA3F54"/>
<path d="M210.088 90.6794C209.058 91.9291 207.178 92.112 205.935 91.0452L163.365 54.8033L120.796 91.0452C119.552 92.112 117.703 91.9291 116.642 90.6794C115.611 89.4297 115.762 87.6008 117.006 86.5645L158.847 50.9932L163.395 47.1221L167.913 50.9932L209.755 86.5645C210.968 87.5703 211.119 89.4297 210.088 90.6794Z" stroke="#1C1A34" stroke-width="1.81921" stroke-miterlimit="10" stroke-linecap="round" stroke-linejoin="round"/>
<path d="M221.337 163.287V116.773" stroke="#1C1A34" stroke-width="1.81921" stroke-miterlimit="10" stroke-linecap="round" stroke-linejoin="round"/>
<path d="M235.345 163.287V116.773" stroke="#1C1A34" stroke-width="1.81921" stroke-miterlimit="10" stroke-linecap="round" stroke-linejoin="round"/>
<path d="M163.456 96.8382V79.1592" stroke="#1C1A34" stroke-width="1.81921" stroke-miterlimit="10" stroke-linecap="round" stroke-linejoin="round"/>
<path d="M154.663 87.998H172.249" stroke="#1C1A34" stroke-width="1.81921" stroke-miterlimit="10" stroke-linecap="round" stroke-linejoin="round"/>
<path d="M83.623 142.56H26.6211V143.779H83.623V142.56Z" stroke="#1C1A34" stroke-width="1.81921" stroke-miterlimit="10" stroke-linecap="round" stroke-linejoin="round"/>
<path d="M83.623 151.187H26.6211V152.406H83.623V151.187Z" stroke="#1C1A34" stroke-width="1.81921" stroke-miterlimit="10" stroke-linecap="round" stroke-linejoin="round"/>
<path d="M35.3535 163.287V100.679" stroke="#1C1A34" stroke-width="1.81921" stroke-miterlimit="10" stroke-linecap="round" stroke-linejoin="round"/>
<path d="M21.376 163.287V116.773" stroke="#1C1A34" stroke-width="1.81921" stroke-miterlimit="10" stroke-linecap="round" stroke-linejoin="round"/>
<path d="M55.8496 163.288V105.313" stroke="#1C1A34" stroke-width="1.81921" stroke-miterlimit="10" stroke-linecap="round" stroke-linejoin="round"/>
<path d="M79.863 163.286H75.6182V136.768L77.7406 132.988L79.863 136.768V163.286Z" fill="#663333"/>
<path d="M79.863 163.286H75.6182V136.768L77.7406 132.988L79.863 136.768V163.286Z" stroke="#1C1A34" stroke-width="1.81921" stroke-miterlimit="10" stroke-linecap="round" stroke-linejoin="round"/>
<path d="M68.5837 163.286H64.3389V136.768L66.4613 132.988L68.5837 136.768V163.286Z" fill="#663333"/>
<path d="M68.5837 163.286H64.3389V136.768L66.4613 132.988L68.5837 136.768V163.286Z" stroke="#1C1A34" stroke-width="1.81921" stroke-miterlimit="10" stroke-linecap="round" stroke-linejoin="round"/>
<path d="M57.3356 163.286H53.0908V136.768L55.2132 132.988L57.3356 136.768V163.286Z" fill="#663333"/>
<path d="M57.3356 163.286H53.0908V136.768L55.2132 132.988L57.3356 136.768V163.286Z" stroke="#1C1A34" stroke-width="1.81921" stroke-miterlimit="10" stroke-linecap="round" stroke-linejoin="round"/>
<path d="M46.0866 163.286H41.8418V136.768L43.9642 132.988L46.0866 136.768V163.286Z" fill="#663333"/>
<path d="M46.0866 163.286H41.8418V136.768L43.9642 132.988L46.0866 136.768V163.286Z" stroke="#1C1A34" stroke-width="1.81921" stroke-miterlimit="10" stroke-linecap="round" stroke-linejoin="round"/>
<path d="M34.8376 163.286H30.5928V136.768L32.7152 132.988L34.8376 136.768V163.286Z" fill="#663333"/>
<path d="M34.8376 163.286H30.5928V136.768L32.7152 132.988L34.8376 136.768V163.286Z" stroke="#1C1A34" stroke-width="1.81921" stroke-miterlimit="10" stroke-linecap="round" stroke-linejoin="round"/>
<path d="M169.338 142.804V149.662" stroke="#1C1A34" stroke-width="1.81921" stroke-miterlimit="10" stroke-linecap="round" stroke-linejoin="round"/>
<path d="M235.617 125.217L238.073 122.535" stroke="#1C1A34" stroke-width="1.81921" stroke-miterlimit="10" stroke-linecap="round" stroke-linejoin="round"/>
<path d="M235.345 134.331L239.165 131.771" stroke="#1C1A34" stroke-width="1.81921" stroke-miterlimit="10" stroke-linecap="round" stroke-linejoin="round"/>
<path d="M235.163 129.758L232.616 127.808" stroke="#1C1A34" stroke-width="1.81921" stroke-miterlimit="10" stroke-linecap="round" stroke-linejoin="round"/>
<path d="M221.337 122.534L224.611 120.096" stroke="#1C1A34" stroke-width="1.81921" stroke-miterlimit="10" stroke-linecap="round" stroke-linejoin="round"/>
<path d="M221.337 131.374L226.431 127.808" stroke="#1C1A34" stroke-width="1.81921" stroke-miterlimit="10" stroke-linecap="round" stroke-linejoin="round"/>
<path d="M221.185 126.404L217.759 123.143" stroke="#1C1A34" stroke-width="1.81921" stroke-miterlimit="10" stroke-linecap="round" stroke-linejoin="round"/>
<path d="M60.337 120.552L55.8496 125.734" stroke="#1C1A34" stroke-width="1.81921" stroke-miterlimit="10" stroke-linecap="round" stroke-linejoin="round"/>
<path d="M58.821 108.391L55.8496 112.78" stroke="#1C1A34" stroke-width="1.81921" stroke-miterlimit="10" stroke-linecap="round" stroke-linejoin="round"/>
<path d="M55.8499 119.639L51.8477 116.773" stroke="#1C1A34" stroke-width="1.81921" stroke-miterlimit="10" stroke-linecap="round" stroke-linejoin="round"/>
<path d="M182.467 128.783H170.976V140.031H182.467V128.783Z" fill="#89C6CC"/>
<path opacity="0.92" d="M170.976 137.379L177.464 128.783H171.4L170.976 129.332V137.379Z" fill="#D0F6FB"/>
<path opacity="0.92" d="M179.192 128.783L170.976 139.665V140.031H172.219L180.708 128.783H179.192Z" fill="#D0F6FB"/>
<path d="M182.467 128.783H170.976V140.031H182.467V128.783Z" stroke="#1C1A34" stroke-width="1.81921" stroke-miterlimit="10" stroke-linecap="round" stroke-linejoin="round"/>
<path d="M39.1132 106.072L35.3535 109.882" stroke="#1C1A34" stroke-width="1.81921" stroke-miterlimit="10" stroke-linecap="round" stroke-linejoin="round"/>
<path d="M35.3535 119.637L40.1744 115.096" stroke="#1C1A34" stroke-width="1.81921" stroke-miterlimit="10" stroke-linecap="round" stroke-linejoin="round"/>
<path d="M35.3532 113.846L31.7754 110.585" stroke="#1C1A34" stroke-width="1.81921" stroke-miterlimit="10" stroke-linecap="round" stroke-linejoin="round"/>
<path d="M21.376 128.933L24.6202 125.123" stroke="#1C1A34" stroke-width="1.81921" stroke-miterlimit="10" stroke-linecap="round" stroke-linejoin="round"/>
<path d="M21.2234 123.143L18.1914 120.552" stroke="#1C1A34" stroke-width="1.81921" stroke-miterlimit="10" stroke-linecap="round" stroke-linejoin="round"/>
<path d="M61.1254 23.0753C61.1557 22.8315 61.1557 22.5571 61.1557 22.3133C61.1557 17.6497 57.396 13.87 52.757 13.87C51.1501 13.87 49.6644 14.3273 48.391 15.0893C47.3297 14.3273 46.026 13.87 44.6313 13.87C44.1158 13.87 43.6307 13.931 43.1456 14.0529C42.4482 9.75511 38.7491 6.46316 34.2618 6.46316C33.3522 6.46316 32.4729 6.58508 31.6542 6.85941C29.2589 4.96959 26.2572 3.8418 22.9827 3.8418C16.0394 3.8418 10.2785 8.87116 9.09604 15.516C9.0354 15.516 8.94444 15.516 8.8838 15.516C4.39642 15.516 0.697363 18.808 0 23.1058H61.1254V23.0753Z" fill="white"/>
<path d="M272.76 12.7715C272.153 11.8571 271.092 11.2475 269.91 11.2475C269.273 11.2475 268.667 11.4304 268.151 11.7352C268.06 8.74804 265.604 6.37052 262.633 6.37052C261.784 6.37052 260.996 6.55341 260.298 6.88871C259.025 2.8957 255.295 0 250.899 0C245.472 0 241.045 4.41974 241.045 9.90632C241.045 10.9122 241.197 11.8571 241.469 12.7715H272.76Z" fill="white"/>
</svg>
