<svg width="24" height="20" viewBox="0 0 24 20" fill="none" xmlns="http://www.w3.org/2000/svg">
<path d="M14.14 9.62875H14.08C14.89 9.62875 15.36 8.71875 14.9 8.05875L9.82002 0.798746C9.42002 0.228746 8.58002 0.228746 8.18002 0.798746L3.10002 8.05875C2.64002 8.71875 3.11002 9.62875 3.92002 9.62875H3.86002L0.990018 14.0887C0.560018 14.7487 1.04002 15.6287 1.83002 15.6287H7.00002V17.6287C7.00002 18.7287 7.90002 19.6287 9.00002 19.6287C10.1 19.6287 11 18.7287 11 17.6287V15.6287H16.17C16.96 15.6287 17.44 14.7487 17.01 14.0887L14.14 9.62875Z" fill="#757575"/>
<path d="M23.01 14.0887L20.14 9.62875H20.08C20.89 9.62875 21.36 8.71875 20.9 8.05875L15.82 0.798746C15.42 0.228746 14.58 0.228746 14.18 0.798746L12.61 3.03875L15.72 7.47875C16.15 8.08875 16.2 8.88875 15.86 9.54875C15.78 9.70875 15.68 9.84875 15.56 9.97875L17.85 13.5487C18.25 14.1687 18.27 14.9487 17.92 15.5887C17.91 15.6087 17.9 15.6187 17.89 15.6287H22.17C22.96 15.6287 23.44 14.7487 23.01 14.0887Z" fill="#757575"/>
<path d="M13 17.6287C13 18.7287 13.9 19.6287 15 19.6287C16.1 19.6287 17 18.7287 17 17.6287V16.6287H13V17.6287Z" fill="#757575"/>
</svg>
