<svg width="32" height="32" viewBox="0 0 32 32" fill="none" xmlns="http://www.w3.org/2000/svg">
<rect width="32" height="32" rx="16" fill="#FF4C4C"/>
<path d="M8.49984 11.0003C8.0415 11.0003 7.6665 11.3753 7.6665 11.8337V22.667C7.6665 23.5837 8.4165 24.3337 9.33317 24.3337H20.1665C20.6248 24.3337 20.9998 23.9587 20.9998 23.5003C20.9998 23.042 20.6248 22.667 20.1665 22.667H10.1665C9.70817 22.667 9.33317 22.292 9.33317 21.8337V11.8337C9.33317 11.3753 8.95817 11.0003 8.49984 11.0003ZM22.6665 7.66699H12.6665C11.7498 7.66699 10.9998 8.41699 10.9998 9.33366V19.3337C10.9998 20.2503 11.7498 21.0003 12.6665 21.0003H22.6665C23.5832 21.0003 24.3332 20.2503 24.3332 19.3337V9.33366C24.3332 8.41699 23.5832 7.66699 22.6665 7.66699ZM20.9998 15.167H14.3332C13.8748 15.167 13.4998 14.792 13.4998 14.3337C13.4998 13.8753 13.8748 13.5003 14.3332 13.5003H20.9998C21.4582 13.5003 21.8332 13.8753 21.8332 14.3337C21.8332 14.792 21.4582 15.167 20.9998 15.167ZM17.6665 18.5003H14.3332C13.8748 18.5003 13.4998 18.1253 13.4998 17.667C13.4998 17.2087 13.8748 16.8337 14.3332 16.8337H17.6665C18.1248 16.8337 18.4998 17.2087 18.4998 17.667C18.4998 18.1253 18.1248 18.5003 17.6665 18.5003ZM20.9998 11.8337H14.3332C13.8748 11.8337 13.4998 11.4587 13.4998 11.0003C13.4998 10.542 13.8748 10.167 14.3332 10.167H20.9998C21.4582 10.167 21.8332 10.542 21.8332 11.0003C21.8332 11.4587 21.4582 11.8337 20.9998 11.8337Z" fill="white"/>
</svg>
