<svg width="32" height="32" viewBox="0 0 32 32" fill="none" xmlns="http://www.w3.org/2000/svg">
<rect width="32" height="32" rx="16" fill="#F2B705"/>
<path d="M22.6665 7.66699H12.6665C11.7498 7.66699 10.9998 8.41699 10.9998 9.33366V19.3337C10.9998 20.2503 11.7498 21.0003 12.6665 21.0003H22.6665C23.5832 21.0003 24.3332 20.2503 24.3332 19.3337V9.33366C24.3332 8.41699 23.5832 7.66699 22.6665 7.66699ZM15.5832 13.917C15.5832 14.6087 15.0248 15.167 14.3332 15.167H13.4998V16.2087C13.4998 16.5503 13.2165 16.8337 12.8748 16.8337C12.5332 16.8337 12.2498 16.5503 12.2498 16.2087V12.667C12.2498 12.2087 12.6248 11.8337 13.0832 11.8337H14.3332C15.0248 11.8337 15.5832 12.392 15.5832 13.0837V13.917ZM19.7498 15.5837C19.7498 16.2753 19.1915 16.8337 18.4998 16.8337H16.8332C16.5998 16.8337 16.4165 16.6503 16.4165 16.417V12.2503C16.4165 12.017 16.5998 11.8337 16.8332 11.8337H18.4998C19.1915 11.8337 19.7498 12.392 19.7498 13.0837V15.5837ZM23.0832 12.4587C23.0832 12.8003 22.7998 13.0837 22.4582 13.0837H21.8332V13.917H22.4582C22.7998 13.917 23.0832 14.2003 23.0832 14.542C23.0832 14.8837 22.7998 15.167 22.4582 15.167H21.8332V16.2087C21.8332 16.5503 21.5498 16.8337 21.2082 16.8337C20.8665 16.8337 20.5832 16.5503 20.5832 16.2087V12.667C20.5832 12.2087 20.9582 11.8337 21.4165 11.8337H22.4582C22.7998 11.8337 23.0832 12.117 23.0832 12.4587ZM13.4998 13.917H14.3332V13.0837H13.4998V13.917ZM8.49984 11.0003C8.0415 11.0003 7.6665 11.3753 7.6665 11.8337V22.667C7.6665 23.5837 8.4165 24.3337 9.33317 24.3337H20.1665C20.6248 24.3337 20.9998 23.9587 20.9998 23.5003C20.9998 23.042 20.6248 22.667 20.1665 22.667H10.1665C9.70817 22.667 9.33317 22.292 9.33317 21.8337V11.8337C9.33317 11.3753 8.95817 11.0003 8.49984 11.0003ZM17.6665 15.5837H18.4998V13.0837H17.6665V15.5837Z" fill="white"/>
</svg>
