<svg width="32" height="32" viewBox="0 0 32 32" fill="none" xmlns="http://www.w3.org/2000/svg">
<rect width="32" height="32" rx="16" fill="#0788D9"/>
<path d="M19.3332 9.33366C19.3332 8.41699 20.0832 7.66699 20.9998 7.66699C21.9165 7.66699 22.6665 8.41699 22.6665 9.33366C22.6665 10.2503 21.9165 11.0003 20.9998 11.0003C20.0832 11.0003 19.3332 10.2503 19.3332 9.33366ZM23.3165 12.317C22.6082 12.0087 21.8248 11.8337 20.9998 11.8337C20.4415 11.8337 19.9082 11.917 19.3998 12.067C19.8832 12.5253 20.1665 13.167 20.1665 13.8587V14.3337H24.3332V13.8587C24.3332 13.1837 23.9332 12.5837 23.3165 12.317ZM10.9998 11.0003C11.9165 11.0003 12.6665 10.2503 12.6665 9.33366C12.6665 8.41699 11.9165 7.66699 10.9998 7.66699C10.0832 7.66699 9.33317 8.41699 9.33317 9.33366C9.33317 10.2503 10.0832 11.0003 10.9998 11.0003ZM12.5998 12.067C12.0915 11.917 11.5582 11.8337 10.9998 11.8337C10.1748 11.8337 9.3915 12.0087 8.68317 12.317C8.0665 12.5837 7.6665 13.1837 7.6665 13.8587V14.3337H11.8332V13.8587C11.8332 13.167 12.1165 12.5253 12.5998 12.067ZM14.3332 9.33366C14.3332 8.41699 15.0832 7.66699 15.9998 7.66699C16.9165 7.66699 17.6665 8.41699 17.6665 9.33366C17.6665 10.2503 16.9165 11.0003 15.9998 11.0003C15.0832 11.0003 14.3332 10.2503 14.3332 9.33366ZM19.3332 14.3337H12.6665V13.8587C12.6665 13.1837 13.0665 12.5837 13.6832 12.317C14.3915 12.0087 15.1748 11.8337 15.9998 11.8337C16.8248 11.8337 17.6082 12.0087 18.3165 12.317C18.9332 12.5837 19.3332 13.1837 19.3332 13.8587V14.3337ZM18.4998 19.3337C18.4998 18.417 19.2498 17.667 20.1665 17.667C21.0832 17.667 21.8332 18.417 21.8332 19.3337C21.8332 20.2503 21.0832 21.0003 20.1665 21.0003C19.2498 21.0003 18.4998 20.2503 18.4998 19.3337ZM23.4998 24.3337H16.8332V23.8587C16.8332 23.1837 17.2332 22.5837 17.8498 22.317C18.5582 22.0087 19.3415 21.8337 20.1665 21.8337C20.9915 21.8337 21.7748 22.0087 22.4832 22.317C23.0998 22.5837 23.4998 23.1837 23.4998 23.8587V24.3337ZM10.1665 19.3337C10.1665 18.417 10.9165 17.667 11.8332 17.667C12.7498 17.667 13.4998 18.417 13.4998 19.3337C13.4998 20.2503 12.7498 21.0003 11.8332 21.0003C10.9165 21.0003 10.1665 20.2503 10.1665 19.3337ZM15.1665 24.3337H8.49984V23.8587C8.49984 23.1837 8.89984 22.5837 9.5165 22.317C10.2248 22.0087 11.0082 21.8337 11.8332 21.8337C12.6582 21.8337 13.4415 22.0087 14.1498 22.317C14.7665 22.5837 15.1665 23.1837 15.1665 23.8587V24.3337ZM17.4915 16.8337H16.6248V15.792C16.6248 15.4503 16.3415 15.167 15.9998 15.167C15.6582 15.167 15.3748 15.4503 15.3748 15.792V16.8337H14.5082C14.1332 16.8337 13.9498 17.2837 14.2165 17.542L15.7082 19.0337C15.8748 19.2003 16.1332 19.2003 16.2998 19.0337L17.7915 17.542C18.0498 17.2837 17.8665 16.8337 17.4915 16.8337Z" fill="white"/>
</svg>
