<svg width="32" height="32" viewBox="0 0 32 32" fill="none" xmlns="http://www.w3.org/2000/svg">
<rect width="32" height="32" rx="16" fill="#6CD9CE"/>
<path d="M24.3332 20.5663C24.3332 21.7163 23.3998 22.6497 22.2498 22.6497L16.8332 22.6663C15.4498 22.6663 14.3332 21.5497 14.3332 20.1663C14.3332 18.833 15.3832 17.7497 16.6998 17.683C17.1665 16.6913 18.1665 15.9997 19.3332 15.9997C20.7998 15.9997 21.9998 17.083 22.2082 18.4913C22.2248 18.4913 22.2332 18.483 22.2498 18.483C23.3998 18.483 24.3332 19.4163 24.3332 20.5663ZM12.6665 18.4997C12.6665 18.0413 12.2915 17.6663 11.8332 17.6663C11.3748 17.6663 10.9998 18.0413 10.9998 18.4997V19.6997C9.98317 18.783 9.33317 17.4747 9.33317 15.9997C9.33317 14.0163 10.4915 12.308 12.1665 11.4997C12.4748 11.3497 12.6665 11.033 12.6665 10.6913C12.6665 10.0997 12.0582 9.70801 11.5248 9.95801C9.2415 11.0247 7.6665 13.3247 7.6665 15.9997C7.6665 17.9997 8.54984 19.783 9.9415 20.9997H8.49984C8.0415 20.9997 7.6665 21.3747 7.6665 21.833C7.6665 22.2913 8.0415 22.6663 8.49984 22.6663H11.8332C12.2915 22.6663 12.6665 22.2913 12.6665 21.833V18.4997ZM20.1665 10.9997C20.6248 10.9997 20.9998 10.6247 20.9998 10.1663C20.9998 9.70801 20.6248 9.33301 20.1665 9.33301H16.8332C16.3748 9.33301 15.9998 9.70801 15.9998 10.1663V13.4997C15.9998 13.958 16.3748 14.333 16.8332 14.333C17.2915 14.333 17.6665 13.958 17.6665 13.4997V12.2997C18.4832 13.0413 19.0665 14.033 19.2665 15.1663H20.9498C20.7415 13.508 19.9248 12.0497 18.7332 10.9997H20.1665Z" fill="white"/>
</svg>
