<svg width="22" height="18" viewBox="0 0 22 18" fill="none" xmlns="http://www.w3.org/2000/svg">
<path d="M16.5049 0.677505C14.5549 0.677505 12.4549 1.07751 11.0049 2.17751C9.55488 1.07751 7.45488 0.677505 5.50488 0.677505C4.05488 0.677505 2.51488 0.897505 1.22488 1.46751C0.494883 1.79751 0.00488281 2.50751 0.00488281 3.31751V14.5975C0.00488281 15.8975 1.22488 16.8575 2.48488 16.5375C3.46488 16.2875 4.50488 16.1775 5.50488 16.1775C7.06488 16.1775 8.72488 16.4375 10.0649 17.0975C10.6649 17.3975 11.3449 17.3975 11.9349 17.0975C13.2749 16.4275 14.9349 16.1775 16.4949 16.1775C17.4949 16.1775 18.5349 16.2875 19.5149 16.5375C20.7749 16.8675 21.9949 15.9075 21.9949 14.5975V3.31751C21.9949 2.50751 21.5049 1.79751 20.7749 1.46751C19.4949 0.897505 17.9549 0.677505 16.5049 0.677505ZM20.0049 13.4075C20.0049 14.0375 19.4249 14.4975 18.8049 14.3875C18.0549 14.2475 17.2749 14.1875 16.5049 14.1875C14.8049 14.1875 12.3549 14.8375 11.0049 15.6875V4.17751C12.3549 3.32751 14.8049 2.67751 16.5049 2.67751C17.4249 2.67751 18.3349 2.76751 19.2049 2.95751C19.6649 3.05751 20.0049 3.46751 20.0049 3.93751V13.4075Z" fill="#757575"/>
</svg>
