<svg width="20" height="18" viewBox="0 0 20 18" fill="none" xmlns="http://www.w3.org/2000/svg">
<path d="M0.849941 16.85L1.84994 17.85C1.94994 17.95 2.06994 18 2.20994 18H17.7999C17.9299 18 18.0599 17.95 18.1499 17.85L19.1499 16.85C19.4599 16.54 19.2399 16 18.7999 16H1.20994C0.759941 16 0.539941 16.54 0.849941 16.85Z" fill="#757575"/>
<path d="M0.999941 15H17.9699C18.2599 11.74 15.6899 9 12.4899 9C10.1399 9 8.13994 10.48 7.34994 12.55C6.93994 12.32 6.47994 12.17 5.99994 12.08V6H7.74994C8.98994 6 9.99994 4.99 9.99994 3.75H18.2499C18.6599 3.75 18.9999 3.41 18.9999 3C18.9999 2.59 18.6599 2.25 18.2499 2.25H9.99994C9.99994 1.01 8.98994 0 7.74994 0H1.74994C1.33994 0 0.999941 0.34 0.999941 0.75C0.999941 1.16 1.33994 1.5 1.74994 1.5H1.99994V2.25H1.74994C1.33994 2.25 0.999941 2.59 0.999941 3C0.999941 3.41 1.33994 3.75 1.74994 3.75H1.99994V4.5H1.74994C1.33994 4.5 0.999941 4.84 0.999941 5.25C0.999941 5.66 1.33994 6 1.74994 6H1.99994V13.39C1.55994 13.85 1.21994 14.39 0.999941 15ZM5.99994 1.5H7.99994V2.25H5.99994V1.5ZM5.99994 3.75H7.99994V4.5H5.99994V3.75ZM3.49994 1.5H4.49994V2.25H3.49994V1.5ZM3.49994 3.75H4.49994V4.5H3.49994V3.75ZM3.49994 6H4.49994V12.06C4.14994 12.12 3.81994 12.23 3.49994 12.36V6Z" fill="#757575"/>
</svg>
