<svg width="20" height="20" viewBox="0 0 20 20" fill="none" xmlns="http://www.w3.org/2000/svg">
<path d="M19.5 8.89C19.78 8.89 20 8.67 20 8.39V7.15C20 6.99 19.92 6.83 19.79 6.74L10.57 0.290001C10.23 0.0500006 9.77 0.0500006 9.42 0.290001L0.21 6.74C0.08 6.83 0 6.99 0 7.15V8.39C0 8.67 0.22 8.89 0.5 8.89H2V17.89H1C0.45 17.89 0 18.34 0 18.89C0 19.44 0.45 19.89 1 19.89H19C19.55 19.89 20 19.44 20 18.89C20 18.34 19.55 17.89 19 17.89H18V8.89H19.5ZM14 14.89C14 15.44 13.55 15.89 13 15.89C12.45 15.89 12 15.44 12 14.89V11.89L10.83 13.64C10.43 14.23 9.56 14.23 9.17 13.64L8 11.89V14.89C8 15.44 7.55 15.89 7 15.89C6.45 15.89 6 15.44 6 14.89V10.19C6 9.47 6.58 8.89 7.3 8.89C7.73 8.89 8.14 9.11 8.38 9.47L10 11.89L11.61 9.47C11.86 9.11 12.26 8.89 12.7 8.89C13.42 8.89 14 9.47 14 10.19V14.89Z" fill="#757575"/>
</svg>
