<svg width="25" height="24" viewBox="0 0 25 24" fill="none" xmlns="http://www.w3.org/2000/svg">
<path d="M12.75 2.16113C8.55 2.16113 4.75 5.38113 4.75 10.3611C4.75 13.5411 7.2 17.2811 12.09 21.5911C12.47 21.9211 13.04 21.9211 13.42 21.5911C18.3 17.2811 20.75 13.5411 20.75 10.3611C20.75 5.38113 16.95 2.16113 12.75 2.16113ZM12.75 12.1611C11.65 12.1611 10.75 11.2611 10.75 10.1611C10.75 9.06113 11.65 8.16113 12.75 8.16113C13.85 8.16113 14.75 9.06113 14.75 10.1611C14.75 11.2611 13.85 12.1611 12.75 12.1611Z" fill="#BDBDBD"/>
</svg>
