<svg width="24" height="24" viewBox="0 0 24 24" fill="none" xmlns="http://www.w3.org/2000/svg">
<path d="M2 11.6C2 7.07452 2 4.81177 3.40589 3.40589C4.81177 2 7.07452 2 11.6 2L12.4 2C16.9255 2 19.1882 2 20.5941 3.40589C22 4.81177 22 7.07452 22 11.6V12.4C22 16.9255 22 19.1882 20.5941 20.5941C19.1882 22 16.9255 22 12.4 22H11.6C7.07452 22 4.81177 22 3.40589 20.5941C2 19.1882 2 16.9255 2 12.4V11.6Z" fill="#0077FF"/>
<path d="M12.5359 16C8.43595 16 6.09744 12.997 6 8H8.05371C8.12117 11.6677 9.63519 13.2212 10.8344 13.5415V8H12.7683V11.1632C13.9525 11.027 15.1966 9.58559 15.6164 8L17.5502 8C17.2279 9.95396 15.8787 11.3954 14.9193 11.988C15.8787 12.4685 17.4154 13.7257 18 16L15.8713 16C15.4141 14.4785 14.2748 13.3013 12.7683 13.1411V16H12.5359Z" fill="white"/>
</svg>
